<?xml version="1.0" standalone="no"?>
<!DOCTYPE svg PUBLIC "-//W3C//DTD SVG 20010904//EN"
 "http://www.w3.org/TR/2001/REC-SVG-20010904/DTD/svg10.dtd">
<svg version="1.0" xmlns="http://www.w3.org/2000/svg"
 width="280.000000pt" height="280.000000pt" viewBox="0 0 280.000000 280.000000"
 preserveAspectRatio="xMidYMid meet">
<metadata>
Created by potrace 1.14, written by Peter Selinger 2001-2017
</metadata>
<g transform="translate(0.000000,280.000000) scale(0.100000,-0.100000)"
fill="#000000" stroke="none">
<path d="M131 2297 c-21 -21 -11 -42 29 -60 45 -19 74 -60 113 -157 41 -106
52 -151 61 -268 16 -184 109 -324 266 -397 81 -38 197 -56 265 -41 46 10 81
19 90 25 6 3 16 6 23 7 24 4 97 52 140 93 77 72 127 172 138 275 10 94 12 96
116 101 74 4 138 -9 139 -28 15 -207 101 -347 262 -426 34 -17 78 -34 99 -40
47 -12 172 -12 212 0 76 23 100 32 110 41 6 4 33 23 59 40 68 43 159 171 173
242 12 59 16 85 19 131 5 63 13 103 26 127 5 10 8 18 5 18 -8 0 29 102 59 163
25 50 71 100 96 103 5 1 14 2 20 3 6 0 9 11 7 24 -2 18 -10 22 -39 23 -49 1
-100 -47 -144 -137 -18 -38 -31 -69 -29 -69 3 0 -2 -13 -11 -30 -9 -16 -20
-30 -25 -30 -5 0 -19 18 -30 41 -25 49 -139 164 -168 171 -4 0 -23 8 -42 16
-19 8 -36 14 -37 14 -2 -1 -17 5 -35 12 -41 17 -234 13 -255 -4 -2 -2 -6 -3
-10 -4 -30 -7 -61 -21 -75 -34 -10 -8 -18 -12 -18 -9 0 10 -39 -22 -95 -78
-47 -46 -94 -126 -111 -185 -9 -34 -20 -39 -68 -33 -58 8 -124 7 -168 -2 -35
-7 -39 -5 -49 21 -7 16 -13 31 -14 34 -12 48 -67 135 -109 175 -25 25 -101 76
-136 92 -103 48 -239 53 -352 13 -38 -13 -68 -27 -68 -32 0 -4 -7 -8 -15 -8
-22 0 -148 -129 -164 -168 -8 -18 -18 -31 -24 -29 -6 2 -25 38 -43 81 -38 90
-88 161 -124 175 -49 18 -58 19 -69 8z m724 -71 c125 -13 248 -106 305 -231
57 -125 41 -286 -38 -388 -163 -211 -436 -229 -613 -40 -37 38 -96 133 -84
133 3 0 3 6 -2 13 -12 20 -15 38 -19 117 -3 87 15 150 66 226 31 48 118 128
136 126 5 0 17 7 28 16 10 9 19 15 20 13 0 -2 19 2 41 7 45 12 95 19 110 15 6
-1 28 -4 50 -7z m1194 0 c107 -14 232 -108 286 -215 32 -64 35 -76 39 -160 6
-103 -19 -179 -87 -264 -33 -43 -129 -117 -150 -117 -7 0 -17 -3 -21 -7 -3 -4
-12 -8 -19 -9 -7 -2 -25 -6 -42 -10 -197 -44 -407 91 -463 299 -10 37 -10 151
1 193 15 59 70 145 127 198 34 31 65 55 68 52 3 -4 14 1 24 11 10 9 18 13 18
9 0 -4 10 -2 21 5 25 13 105 27 134 23 11 -1 40 -5 64 -8z"/>
<path d="M140 850 c0 -14 53 -86 89 -120 41 -38 149 -97 193 -104 15 -3 33 -8
39 -11 15 -10 230 -13 254 -5 11 4 43 10 70 14 28 3 61 8 75 11 51 11 202 24
353 30 54 3 116 9 138 15 22 6 48 8 59 5 37 -12 67 -15 165 -20 55 -2 129 -7
165 -10 36 -4 87 -8 114 -10 27 -2 63 -7 80 -11 17 -4 36 -8 41 -9 6 0 33 -5
60 -10 120 -20 277 -9 370 27 49 19 136 77 163 110 14 16 32 36 40 44 7 8 11
14 7 14 -3 0 2 12 12 28 11 17 0 10 -30 -20 -40 -42 -167 -119 -167 -102 0 4
-6 1 -14 -5 -25 -21 -168 -32 -256 -19 -51 7 -70 11 -117 22 -28 7 -178 63
-199 74 -11 6 -23 11 -29 11 -5 1 -27 6 -49 12 -79 21 -183 35 -246 31 -89 -4
-160 -5 -260 -1 -79 2 -127 -2 -190 -16 -14 -3 -35 -8 -47 -11 -12 -2 -33 -8
-45 -13 -13 -5 -27 -10 -33 -11 -12 -3 -53 -18 -75 -27 -8 -3 -17 -7 -20 -8
-3 -1 -13 -5 -22 -9 -9 -4 -22 -8 -30 -10 -7 -1 -18 -5 -24 -8 -15 -10 -100
-29 -154 -36 -84 -10 -189 -4 -242 14 -21 7 -38 11 -38 8 0 -14 -119 63 -157
101 -24 24 -43 40 -43 35z"/>
<path d="M1347 525 c-1 -2 -88 -10 -162 -15 -5 -1 8 -10 29 -21 43 -23 46 -25
92 -66 37 -33 74 -90 74 -115 0 -10 5 -18 12 -18 6 0 9 3 5 6 -9 9 26 73 59
111 16 18 56 48 88 68 49 28 55 35 35 36 -13 0 -33 2 -44 5 -22 4 -184 12
-188 9z"/>
</g>
</svg>
